<svg width="1024" height="753" viewBox="0 0 1024 753" fill="none" xmlns="http://www.w3.org/2000/svg">
<g clip-path="url(#clip0_175_1901)">
<rect width="1024" height="753" fill="#121214"/>
<g opacity="0.2" filter="url(#filter0_f_175_1901)">
<ellipse cx="512.5" cy="35" rx="670.5" ry="350" fill="#B3A659"/>
</g>
<path d="M33.0349 271C34.5302 271 35.6622 271.63 36.4308 272.891C37.2134 274.138 37.6047 275.953 37.6047 278.336C37.6047 280.719 37.2134 282.541 36.4308 283.802C35.6622 285.063 34.5302 285.693 33.0349 285.693C31.5536 285.693 30.4216 285.063 29.639 283.802C28.8564 282.541 28.4651 280.719 28.4651 278.336C28.4651 275.967 28.8564 274.152 29.639 272.891C30.4216 271.63 31.5536 271 33.0349 271ZM29.9534 278.336C29.9534 280.026 30.1072 281.35 30.4146 282.306L35.0683 273.099C34.5791 272.448 33.9013 272.122 33.0349 272.122C32.0706 272.122 31.316 272.635 30.771 273.66C30.2259 274.672 29.9534 276.23 29.9534 278.336ZM33.0349 284.55C34.0131 284.55 34.7748 284.044 35.3198 283.033C35.8648 282.008 36.1373 280.442 36.1373 278.336C36.1373 276.549 35.9627 275.163 35.6133 274.18L30.9596 283.469C31.4627 284.19 32.1545 284.55 33.0349 284.55Z" fill="url(#paint0_linear_175_1901)" fill-opacity="0.6"/>
<path d="M34.2926 308.135H37.3741V309.236H29.3874V308.135H32.9511V296.455L29.5551 298.471L28.9682 297.536L33.1607 294.959H34.2926V308.135Z" fill="url(#paint1_linear_175_1901)" fill-opacity="0.6"/>
<path d="M33.0349 318.502C34.5302 318.502 35.6622 319.133 36.4308 320.393C37.2134 321.64 37.6047 323.455 37.6047 325.838C37.6047 328.221 37.2134 330.043 36.4308 331.304C35.6622 332.565 34.5302 333.195 33.0349 333.195C31.5536 333.195 30.4216 332.565 29.639 331.304C28.8564 330.043 28.4651 328.221 28.4651 325.838C28.4651 323.469 28.8564 321.654 29.639 320.393C30.4216 319.133 31.5536 318.502 33.0349 318.502ZM29.9534 325.838C29.9534 327.529 30.1072 328.852 30.4146 329.808L35.0683 320.601C34.5791 319.95 33.9013 319.624 33.0349 319.624C32.0706 319.624 31.316 320.137 30.771 321.162C30.2259 322.174 29.9534 323.732 29.9534 325.838ZM33.0349 332.052C34.0131 332.052 34.7748 331.546 35.3198 330.535C35.8648 329.51 36.1373 327.944 36.1373 325.838C36.1373 324.051 35.9627 322.665 35.6133 321.682L30.9596 330.971C31.4627 331.692 32.1545 332.052 33.0349 332.052Z" fill="url(#paint2_linear_175_1901)" fill-opacity="0.6"/>
<path d="M34.2926 355.637H37.3741V356.738H29.3874V355.637H32.9511V343.957L29.5551 345.973L28.9682 345.038L33.1607 342.461H34.2926V355.637Z" fill="url(#paint3_linear_175_1901)" fill-opacity="0.6"/>
<path d="M34.2926 379.388H37.3741V380.489H29.3874V379.388H32.9511V367.708L29.5551 369.724L28.9682 368.789L33.1607 366.212H34.2926V379.388Z" fill="url(#paint4_linear_175_1901)" fill-opacity="0.6"/>
<path d="M33.0349 389.755C34.5302 389.755 35.6622 390.386 36.4308 391.646C37.2134 392.893 37.6047 394.708 37.6047 397.091C37.6047 399.474 37.2134 401.296 36.4308 402.557C35.6622 403.818 34.5302 404.448 33.0349 404.448C31.5536 404.448 30.4216 403.818 29.639 402.557C28.8564 401.296 28.4651 399.474 28.4651 397.091C28.4651 394.722 28.8564 392.907 29.639 391.646C30.4216 390.386 31.5536 389.755 33.0349 389.755ZM29.9534 397.091C29.9534 398.782 30.1072 400.105 30.4146 401.061L35.0683 391.854C34.5791 391.203 33.9013 390.878 33.0349 390.878C32.0706 390.878 31.316 391.39 30.771 392.415C30.2259 393.427 29.9534 394.985 29.9534 397.091ZM33.0349 403.305C34.0131 403.305 34.7748 402.8 35.3198 401.788C35.8648 400.763 36.1373 399.197 36.1373 397.091C36.1373 395.304 35.9627 393.919 35.6133 392.935L30.9596 402.225C31.4627 402.945 32.1545 403.305 33.0349 403.305Z" fill="url(#paint5_linear_175_1901)" fill-opacity="0.6"/>
<path d="M34.2926 426.89H37.3741V427.992H29.3874V426.89H32.9511V415.21L29.5551 417.226L28.9682 416.291L33.1607 413.714H34.2926V426.89Z" fill="url(#paint6_linear_175_1901)" fill-opacity="0.6"/>
<path d="M33.0349 437.257C34.5302 437.257 35.6622 437.888 36.4308 439.149C37.2134 440.396 37.6047 442.211 37.6047 444.594C37.6047 446.977 37.2134 448.798 36.4308 450.059C35.6622 451.32 34.5302 451.95 33.0349 451.95C31.5536 451.95 30.4216 451.32 29.639 450.059C28.8564 448.798 28.4651 446.977 28.4651 444.594C28.4651 442.224 28.8564 440.409 29.639 439.149C30.4216 437.888 31.5536 437.257 33.0349 437.257ZM29.9534 444.594C29.9534 446.284 30.1072 447.607 30.4146 448.563L35.0683 439.356C34.5791 438.705 33.9013 438.38 33.0349 438.38C32.0706 438.38 31.316 438.892 30.771 439.918C30.2259 440.929 29.9534 442.488 29.9534 444.594ZM33.0349 450.807C34.0131 450.807 34.7748 450.302 35.3198 449.29C35.8648 448.265 36.1373 446.699 36.1373 444.594C36.1373 442.806 35.9627 441.421 35.6133 440.437L30.9596 449.727C31.4627 450.447 32.1545 450.807 33.0349 450.807Z" fill="url(#paint7_linear_175_1901)" fill-opacity="0.6"/>
<path d="M33.0349 461.008C34.5302 461.008 35.6622 461.639 36.4308 462.9C37.2134 464.147 37.6047 465.962 37.6047 468.345C37.6047 470.728 37.2134 472.549 36.4308 473.81C35.6622 475.071 34.5302 475.701 33.0349 475.701C31.5536 475.701 30.4216 475.071 29.639 473.81C28.8564 472.549 28.4651 470.728 28.4651 468.345C28.4651 465.975 28.8564 464.16 29.639 462.9C30.4216 461.639 31.5536 461.008 33.0349 461.008ZM29.9534 468.345C29.9534 470.035 30.1072 471.358 30.4146 472.314L35.0683 463.107C34.5791 462.456 33.9013 462.131 33.0349 462.131C32.0706 462.131 31.316 462.643 30.771 463.669C30.2259 464.68 29.9534 466.239 29.9534 468.345ZM33.0349 474.558C34.0131 474.558 34.7748 474.053 35.3198 473.041C35.8648 472.016 36.1373 470.451 36.1373 468.345C36.1373 466.557 35.9627 465.172 35.6133 464.188L30.9596 473.478C31.4627 474.198 32.1545 474.558 33.0349 474.558Z" fill="url(#paint8_linear_175_1901)" fill-opacity="0.6"/>
<path d="M34.2926 498.143H37.3741V499.245H29.3874V498.143H32.9511V486.464L29.5551 488.48L28.9682 487.544L33.1607 484.967H34.2926V498.143Z" fill="url(#paint9_linear_175_1901)" fill-opacity="0.6"/>
<path d="M33.0349 508.511C34.5302 508.511 35.6622 509.141 36.4308 510.402C37.2134 511.649 37.6047 513.464 37.6047 515.847C37.6047 518.23 37.2134 520.052 36.4308 521.312C35.6622 522.573 34.5302 523.204 33.0349 523.204C31.5536 523.204 30.4216 522.573 29.639 521.312C28.8564 520.052 28.4651 518.23 28.4651 515.847C28.4651 513.478 28.8564 511.663 29.639 510.402C30.4216 509.141 31.5536 508.511 33.0349 508.511ZM29.9534 515.847C29.9534 517.537 30.1072 518.86 30.4146 519.816L35.0683 510.61C34.5791 509.958 33.9013 509.633 33.0349 509.633C32.0706 509.633 31.316 510.145 30.771 511.171C30.2259 512.182 29.9534 513.741 29.9534 515.847ZM33.0349 522.061C34.0131 522.061 34.7748 521.555 35.3198 520.543C35.8648 519.518 36.1373 517.953 36.1373 515.847C36.1373 514.059 35.9627 512.674 35.6133 511.69L30.9596 520.98C31.4627 521.7 32.1545 522.061 33.0349 522.061Z" fill="url(#paint10_linear_175_1901)" fill-opacity="0.6"/>
<path d="M34.2926 545.645H37.3741V546.747H29.3874V545.645H32.9511V533.966L29.5551 535.982L28.9682 535.046L33.1607 532.469H34.2926V545.645Z" fill="url(#paint11_linear_175_1901)" fill-opacity="0.6"/>
<path d="M34.2926 569.396H37.3741V570.498H29.3874V569.396H32.9511V557.717L29.5551 559.733L28.9682 558.798L33.1607 556.221H34.2926V569.396Z" fill="url(#paint12_linear_175_1901)" fill-opacity="0.6"/>
<path d="M71.9651 318.502C73.4604 318.502 74.5924 319.133 75.361 320.393C76.1436 321.64 76.5349 323.455 76.5349 325.838C76.5349 328.221 76.1436 330.043 75.361 331.304C74.5924 332.565 73.4604 333.195 71.9651 333.195C70.4838 333.195 69.3518 332.565 68.5692 331.304C67.7866 330.043 67.3953 328.221 67.3953 325.838C67.3953 323.469 67.7866 321.654 68.5692 320.393C69.3518 319.133 70.4838 318.502 71.9651 318.502ZM68.8836 325.838C68.8836 327.529 69.0374 328.852 69.3448 329.808L73.9985 320.601C73.5093 319.95 72.8315 319.624 71.9651 319.624C71.0008 319.624 70.2462 320.137 69.7012 321.162C69.1561 322.174 68.8836 323.732 68.8836 325.838ZM71.9651 332.052C72.9433 332.052 73.705 331.546 74.25 330.535C74.795 329.51 75.0675 327.944 75.0675 325.838C75.0675 324.051 74.8928 322.665 74.5435 321.682L69.8898 330.971C70.3929 331.692 71.0847 332.052 71.9651 332.052Z" fill="url(#paint13_linear_175_1901)" fill-opacity="0.6"/>
<path d="M73.2228 355.637H76.3043V356.738H68.3176V355.637H71.8812V343.957L68.4853 345.973L67.8984 345.038L72.0909 342.461H73.2228V355.637Z" fill="url(#paint14_linear_175_1901)" fill-opacity="0.6"/>
<path d="M71.9651 366.004C73.4604 366.004 74.5924 366.635 75.361 367.895C76.1436 369.142 76.5349 370.957 76.5349 373.34C76.5349 375.723 76.1436 377.545 75.361 378.806C74.5924 380.067 73.4604 380.697 71.9651 380.697C70.4838 380.697 69.3518 380.067 68.5692 378.806C67.7866 377.545 67.3953 375.723 67.3953 373.34C67.3953 370.971 67.7866 369.156 68.5692 367.895C69.3518 366.635 70.4838 366.004 71.9651 366.004ZM68.8836 373.34C68.8836 375.031 69.0374 376.354 69.3448 377.31L73.9985 368.103C73.5093 367.452 72.8315 367.126 71.9651 367.126C71.0008 367.126 70.2462 367.639 69.7012 368.664C69.1561 369.676 68.8836 371.234 68.8836 373.34ZM71.9651 379.554C72.9433 379.554 73.705 379.049 74.25 378.037C74.795 377.012 75.0675 375.446 75.0675 373.34C75.0675 371.553 74.8928 370.168 74.5435 369.184L69.8898 378.474C70.3929 379.194 71.0847 379.554 71.9651 379.554Z" fill="url(#paint15_linear_175_1901)" fill-opacity="0.6"/>
<path d="M71.9651 389.755C73.4604 389.755 74.5924 390.386 75.361 391.646C76.1436 392.893 76.5349 394.708 76.5349 397.091C76.5349 399.474 76.1436 401.296 75.361 402.557C74.5924 403.818 73.4604 404.448 71.9651 404.448C70.4838 404.448 69.3518 403.818 68.5692 402.557C67.7866 401.296 67.3953 399.474 67.3953 397.091C67.3953 394.722 67.7866 392.907 68.5692 391.646C69.3518 390.386 70.4838 389.755 71.9651 389.755ZM68.8836 397.091C68.8836 398.782 69.0374 400.105 69.3448 401.061L73.9985 391.854C73.5093 391.203 72.8315 390.878 71.9651 390.878C71.0008 390.878 70.2462 391.39 69.7012 392.415C69.1561 393.427 68.8836 394.985 68.8836 397.091ZM71.9651 403.305C72.9433 403.305 73.705 402.8 74.25 401.788C74.795 400.763 75.0675 399.197 75.0675 397.091C75.0675 395.304 74.8928 393.919 74.5435 392.935L69.8898 402.225C70.3929 402.945 71.0847 403.305 71.9651 403.305Z" fill="url(#paint16_linear_175_1901)" fill-opacity="0.6"/>
<path d="M73.2228 426.89H76.3043V427.992H68.3176V426.89H71.8812V415.21L68.4853 417.226L67.8984 416.291L72.0909 413.714H73.2228V426.89Z" fill="url(#paint17_linear_175_1901)" fill-opacity="0.6"/>
<path d="M71.9651 437.257C73.4604 437.257 74.5924 437.888 75.361 439.149C76.1436 440.396 76.5349 442.211 76.5349 444.594C76.5349 446.977 76.1436 448.798 75.361 450.059C74.5924 451.32 73.4604 451.95 71.9651 451.95C70.4838 451.95 69.3518 451.32 68.5692 450.059C67.7866 448.798 67.3953 446.977 67.3953 444.594C67.3953 442.224 67.7866 440.409 68.5692 439.149C69.3518 437.888 70.4838 437.257 71.9651 437.257ZM68.8836 444.594C68.8836 446.284 69.0374 447.607 69.3448 448.563L73.9985 439.356C73.5093 438.705 72.8315 438.38 71.9651 438.38C71.0008 438.38 70.2462 438.892 69.7012 439.918C69.1561 440.929 68.8836 442.488 68.8836 444.594ZM71.9651 450.807C72.9433 450.807 73.705 450.302 74.25 449.29C74.795 448.265 75.0675 446.699 75.0675 444.594C75.0675 442.806 74.8928 441.421 74.5435 440.437L69.8898 449.727C70.3929 450.447 71.0847 450.807 71.9651 450.807Z" fill="url(#paint18_linear_175_1901)" fill-opacity="0.6"/>
<path d="M73.2228 474.392H76.3043V475.494H68.3176V474.392H71.8812V462.713L68.4853 464.728L67.8984 463.793L72.0909 461.216H73.2228V474.392Z" fill="url(#paint19_linear_175_1901)" fill-opacity="0.6"/>
<path d="M71.9651 484.76C73.4604 484.76 74.5924 485.39 75.361 486.651C76.1436 487.898 76.5349 489.713 76.5349 492.096C76.5349 494.479 76.1436 496.301 75.361 497.561C74.5924 498.822 73.4604 499.453 71.9651 499.453C70.4838 499.453 69.3518 498.822 68.5692 497.561C67.7866 496.301 67.3953 494.479 67.3953 492.096C67.3953 489.726 67.7866 487.911 68.5692 486.651C69.3518 485.39 70.4838 484.76 71.9651 484.76ZM68.8836 492.096C68.8836 493.786 69.0374 495.109 69.3448 496.065L73.9985 486.859C73.5093 486.207 72.8315 485.882 71.9651 485.882C71.0008 485.882 70.2462 486.394 69.7012 487.42C69.1561 488.431 68.8836 489.99 68.8836 492.096ZM71.9651 498.31C72.9433 498.31 73.705 497.804 74.25 496.792C74.795 495.767 75.0675 494.202 75.0675 492.096C75.0675 490.308 74.8928 488.923 74.5435 487.939L69.8898 497.229C70.3929 497.949 71.0847 498.31 71.9651 498.31Z" fill="url(#paint20_linear_175_1901)" fill-opacity="0.6"/>
<path d="M71.9651 508.511C73.4604 508.511 74.5924 509.141 75.361 510.402C76.1436 511.649 76.5349 513.464 76.5349 515.847C76.5349 518.23 76.1436 520.052 75.361 521.312C74.5924 522.573 73.4604 523.204 71.9651 523.204C70.4838 523.204 69.3518 522.573 68.5692 521.312C67.7866 520.052 67.3953 518.23 67.3953 515.847C67.3953 513.478 67.7866 511.663 68.5692 510.402C69.3518 509.141 70.4838 508.511 71.9651 508.511ZM68.8836 515.847C68.8836 517.537 69.0374 518.86 69.3448 519.816L73.9985 510.61C73.5093 509.958 72.8315 509.633 71.9651 509.633C71.0008 509.633 70.2462 510.145 69.7012 511.171C69.1561 512.182 68.8836 513.741 68.8836 515.847ZM71.9651 522.061C72.9433 522.061 73.705 521.555 74.25 520.543C74.795 519.518 75.0675 517.953 75.0675 515.847C75.0675 514.059 74.8928 512.674 74.5435 511.69L69.8898 520.98C70.3929 521.7 71.0847 522.061 71.9651 522.061Z" fill="url(#paint21_linear_175_1901)" fill-opacity="0.6"/>
<path d="M73.2228 545.645H76.3043V546.747H68.3176V545.645H71.8812V533.966L68.4853 535.982L67.8984 535.046L72.0909 532.469H73.2228V545.645Z" fill="url(#paint22_linear_175_1901)" fill-opacity="0.6"/>
<path d="M71.9651 556.013C73.4604 556.013 74.5924 556.643 75.361 557.904C76.1436 559.151 76.5349 560.966 76.5349 563.349C76.5349 565.732 76.1436 567.554 75.361 568.815C74.5924 570.075 73.4604 570.706 71.9651 570.706C70.4838 570.706 69.3518 570.075 68.5692 568.815C67.7866 567.554 67.3953 565.732 67.3953 563.349C67.3953 560.98 67.7866 559.165 68.5692 557.904C69.3518 556.643 70.4838 556.013 71.9651 556.013ZM68.8836 563.349C68.8836 565.039 69.0374 566.362 69.3448 567.318L73.9985 558.112C73.5093 557.461 72.8315 557.135 71.9651 557.135C71.0008 557.135 70.2462 557.648 69.7012 558.673C69.1561 559.684 68.8836 561.243 68.8836 563.349ZM71.9651 569.563C72.9433 569.563 73.705 569.057 74.25 568.046C74.795 567.02 75.0675 565.455 75.0675 563.349C75.0675 561.562 74.8928 560.176 74.5435 559.192L69.8898 568.482C70.3929 569.202 71.0847 569.563 71.9651 569.563Z" fill="url(#paint23_linear_175_1901)" fill-opacity="0.6"/>
<path d="M73.2228 593.148H76.3043V594.249H68.3176V593.148H71.8812V581.468L68.4853 583.484L67.8984 582.549L72.0909 579.972H73.2228V593.148Z" fill="url(#paint24_linear_175_1901)" fill-opacity="0.6"/>
<path d="M73.2228 616.899H76.3043V618H68.3176V616.899H71.8812V605.219L68.4853 607.235L67.8984 606.3L72.0909 603.723H73.2228V616.899Z" fill="url(#paint25_linear_175_1901)" fill-opacity="0.6"/>
<path d="M13.5698 342.253C15.0651 342.253 16.1971 342.884 16.9657 344.144C17.7483 345.391 18.1396 347.206 18.1396 349.589C18.1396 351.972 17.7483 353.794 16.9657 355.055C16.1971 356.316 15.0651 356.946 13.5698 356.946C12.0885 356.946 10.9565 356.316 10.1739 355.055C9.3913 353.794 9 351.972 9 349.589C9 347.22 9.3913 345.405 10.1739 344.144C10.9565 342.884 12.0885 342.253 13.5698 342.253ZM10.4883 349.589C10.4883 351.28 10.6421 352.603 10.9495 353.559L15.6032 344.352C15.114 343.701 14.4363 343.375 13.5698 343.375C12.6055 343.375 11.8509 343.888 11.3059 344.913C10.7608 345.925 10.4883 347.483 10.4883 349.589ZM13.5698 355.803C14.5481 355.803 15.3097 355.297 15.8547 354.286C16.3997 353.261 16.6722 351.695 16.6722 349.589C16.6722 347.802 16.4976 346.417 16.1482 345.433L11.4945 354.722C11.9976 355.443 12.6894 355.803 13.5698 355.803Z" fill="url(#paint26_linear_175_1901)" fill-opacity="0.6"/>
<path d="M13.5698 366.004C15.0651 366.004 16.1971 366.635 16.9657 367.895C17.7483 369.142 18.1396 370.957 18.1396 373.34C18.1396 375.723 17.7483 377.545 16.9657 378.806C16.1971 380.067 15.0651 380.697 13.5698 380.697C12.0885 380.697 10.9565 380.067 10.1739 378.806C9.3913 377.545 9 375.723 9 373.34C9 370.971 9.3913 369.156 10.1739 367.895C10.9565 366.635 12.0885 366.004 13.5698 366.004ZM10.4883 373.34C10.4883 375.031 10.6421 376.354 10.9495 377.31L15.6032 368.103C15.114 367.452 14.4363 367.126 13.5698 367.126C12.6055 367.126 11.8509 367.639 11.3059 368.664C10.7608 369.676 10.4883 371.234 10.4883 373.34ZM13.5698 379.554C14.5481 379.554 15.3097 379.049 15.8547 378.037C16.3997 377.012 16.6722 375.446 16.6722 373.34C16.6722 371.553 16.4976 370.168 16.1482 369.184L11.4945 378.474C11.9976 379.194 12.6894 379.554 13.5698 379.554Z" fill="url(#paint27_linear_175_1901)" fill-opacity="0.6"/>
<path d="M14.8276 403.139H17.909V404.24H9.92235V403.139H13.486V391.459L10.09 393.475L9.5031 392.54L13.6956 389.963H14.8276V403.139Z" fill="url(#paint28_linear_175_1901)" fill-opacity="0.6"/>
<path d="M13.5698 413.506C15.0651 413.506 16.1971 414.137 16.9657 415.398C17.7483 416.644 18.1396 418.459 18.1396 420.842C18.1396 423.225 17.7483 425.047 16.9657 426.308C16.1971 427.569 15.0651 428.199 13.5698 428.199C12.0885 428.199 10.9565 427.569 10.1739 426.308C9.3913 425.047 9 423.225 9 420.842C9 418.473 9.3913 416.658 10.1739 415.398C10.9565 414.137 12.0885 413.506 13.5698 413.506ZM10.4883 420.842C10.4883 422.533 10.6421 423.856 10.9495 424.812L15.6032 415.605C15.114 414.954 14.4363 414.629 13.5698 414.629C12.6055 414.629 11.8509 415.141 11.3059 416.166C10.7608 417.178 10.4883 418.737 10.4883 420.842ZM13.5698 427.056C14.5481 427.056 15.3097 426.551 15.8547 425.539C16.3997 424.514 16.6722 422.948 16.6722 420.842C16.6722 419.055 16.4976 417.67 16.1482 416.686L11.4945 425.976C11.9976 426.696 12.6894 427.056 13.5698 427.056Z" fill="url(#paint29_linear_175_1901)" fill-opacity="0.6"/>
<path d="M14.8276 450.641H17.909V451.743H9.92235V450.641H13.486V438.962L10.09 440.977L9.5031 440.042L13.6956 437.465H14.8276V450.641Z" fill="url(#paint30_linear_175_1901)" fill-opacity="0.6"/>
<path d="M14.8276 474.392H17.909V475.494H9.92235V474.392H13.486V462.713L10.09 464.728L9.5031 463.793L13.6956 461.216H14.8276V474.392Z" fill="url(#paint31_linear_175_1901)" fill-opacity="0.6"/>
<path d="M53.7577 308.135H56.8392V309.236H48.8525V308.135H52.4162V296.455L49.0202 298.471L48.4333 297.536L52.6258 294.959H53.7577V308.135Z" fill="url(#paint32_linear_175_1901)" fill-opacity="0.6"/>
<path d="M52.5 318.502C53.9953 318.502 55.1273 319.133 55.8959 320.393C56.6785 321.64 57.0698 323.455 57.0698 325.838C57.0698 328.221 56.6785 330.043 55.8959 331.304C55.1273 332.565 53.9953 333.195 52.5 333.195C51.0187 333.195 49.8867 332.565 49.1041 331.304C48.3215 330.043 47.9302 328.221 47.9302 325.838C47.9302 323.469 48.3215 321.654 49.1041 320.393C49.8867 319.133 51.0187 318.502 52.5 318.502ZM49.4185 325.838C49.4185 327.529 49.5723 328.852 49.8797 329.808L54.5334 320.601C54.0442 319.95 53.3664 319.624 52.5 319.624C51.5357 319.624 50.7811 320.137 50.2361 321.162C49.691 322.174 49.4185 323.732 49.4185 325.838ZM52.5 332.052C53.4782 332.052 54.2399 331.546 54.7849 330.535C55.3299 329.51 55.6024 327.944 55.6024 325.838C55.6024 324.051 55.4277 322.665 55.0784 321.682L50.4247 330.971C50.9278 331.692 51.6196 332.052 52.5 332.052Z" fill="url(#paint33_linear_175_1901)" fill-opacity="0.6"/>
<path d="M53.7577 355.637H56.8392V356.738H48.8525V355.637H52.4162V343.957L49.0202 345.973L48.4333 345.038L52.6258 342.461H53.7577V355.637Z" fill="url(#paint34_linear_175_1901)" fill-opacity="0.6"/>
<path d="M53.7577 379.388H56.8392V380.489H48.8525V379.388H52.4162V367.708L49.0202 369.724L48.4333 368.789L52.6258 366.212H53.7577V379.388Z" fill="url(#paint35_linear_175_1901)" fill-opacity="0.6"/>
<path d="M52.5 389.755C53.9953 389.755 55.1273 390.386 55.8959 391.646C56.6785 392.893 57.0698 394.708 57.0698 397.091C57.0698 399.474 56.6785 401.296 55.8959 402.557C55.1273 403.818 53.9953 404.448 52.5 404.448C51.0187 404.448 49.8867 403.818 49.1041 402.557C48.3215 401.296 47.9302 399.474 47.9302 397.091C47.9302 394.722 48.3215 392.907 49.1041 391.646C49.8867 390.386 51.0187 389.755 52.5 389.755ZM49.4185 397.091C49.4185 398.782 49.5723 400.105 49.8797 401.061L54.5334 391.854C54.0442 391.203 53.3664 390.878 52.5 390.878C51.5357 390.878 50.7811 391.39 50.2361 392.415C49.691 393.427 49.4185 394.985 49.4185 397.091ZM52.5 403.305C53.4782 403.305 54.2399 402.8 54.7849 401.788C55.3299 400.763 55.6024 399.197 55.6024 397.091C55.6024 395.304 55.4277 393.919 55.0784 392.935L50.4247 402.225C50.9278 402.945 51.6196 403.305 52.5 403.305Z" fill="url(#paint36_linear_175_1901)" fill-opacity="0.6"/>
<path d="M53.7577 426.89H56.8392V427.992H48.8525V426.89H52.4162V415.21L49.0202 417.226L48.4333 416.291L52.6258 413.714H53.7577V426.89Z" fill="url(#paint37_linear_175_1901)" fill-opacity="0.6"/>
<path d="M53.7577 450.641H56.8392V451.743H48.8525V450.641H52.4162V438.962L49.0202 440.977L48.4333 440.042L52.6258 437.465H53.7577V450.641Z" fill="url(#paint38_linear_175_1901)" fill-opacity="0.6"/>
<path d="M52.5 461.008C53.9953 461.008 55.1273 461.639 55.8959 462.9C56.6785 464.147 57.0698 465.962 57.0698 468.345C57.0698 470.728 56.6785 472.549 55.8959 473.81C55.1273 475.071 53.9953 475.701 52.5 475.701C51.0187 475.701 49.8867 475.071 49.1041 473.81C48.3215 472.549 47.9302 470.728 47.9302 468.345C47.9302 465.975 48.3215 464.16 49.1041 462.9C49.8867 461.639 51.0187 461.008 52.5 461.008ZM49.4185 468.345C49.4185 470.035 49.5723 471.358 49.8797 472.314L54.5334 463.107C54.0442 462.456 53.3664 462.131 52.5 462.131C51.5357 462.131 50.7811 462.643 50.2361 463.669C49.691 464.68 49.4185 466.239 49.4185 468.345ZM52.5 474.558C53.4782 474.558 54.2399 474.053 54.7849 473.041C55.3299 472.016 55.6024 470.451 55.6024 468.345C55.6024 466.557 55.4277 465.172 55.0784 464.188L50.4247 473.478C50.9278 474.198 51.6196 474.558 52.5 474.558Z" fill="url(#paint39_linear_175_1901)" fill-opacity="0.6"/>
<path d="M53.7577 498.143H56.8392V499.245H48.8525V498.143H52.4162V486.464L49.0202 488.48L48.4333 487.544L52.6258 484.967H53.7577V498.143Z" fill="url(#paint40_linear_175_1901)" fill-opacity="0.6"/>
<path d="M52.5 508.511C53.9953 508.511 55.1273 509.141 55.8959 510.402C56.6785 511.649 57.0698 513.464 57.0698 515.847C57.0698 518.23 56.6785 520.052 55.8959 521.312C55.1273 522.573 53.9953 523.204 52.5 523.204C51.0187 523.204 49.8867 522.573 49.1041 521.312C48.3215 520.052 47.9302 518.23 47.9302 515.847C47.9302 513.478 48.3215 511.663 49.1041 510.402C49.8867 509.141 51.0187 508.511 52.5 508.511ZM49.4185 515.847C49.4185 517.537 49.5723 518.86 49.8797 519.816L54.5334 510.61C54.0442 509.958 53.3664 509.633 52.5 509.633C51.5357 509.633 50.7811 510.145 50.2361 511.171C49.691 512.182 49.4185 513.741 49.4185 515.847ZM52.5 522.061C53.4782 522.061 54.2399 521.555 54.7849 520.543C55.3299 519.518 55.6024 517.953 55.6024 515.847C55.6024 514.059 55.4277 512.674 55.0784 511.69L50.4247 520.98C50.9278 521.7 51.6196 522.061 52.5 522.061Z" fill="url(#paint41_linear_175_1901)" fill-opacity="0.6"/>
<path d="M91.4302 294.751C92.9255 294.751 94.0575 295.381 94.8261 296.642C95.6087 297.889 96 299.704 96 302.087C96 304.47 95.6087 306.292 94.8261 307.553C94.0575 308.814 92.9255 309.444 91.4302 309.444C89.9489 309.444 88.8169 308.814 88.0343 307.553C87.2517 306.292 86.8604 304.47 86.8604 302.087C86.8604 299.718 87.2517 297.903 88.0343 296.642C88.8169 295.381 89.9489 294.751 91.4302 294.751ZM88.3487 302.087C88.3487 303.777 88.5024 305.101 88.8099 306.057L93.4636 296.85C92.9744 296.199 92.2966 295.873 91.4302 295.873C90.4659 295.873 89.7113 296.386 89.1663 297.411C88.6212 298.423 88.3487 299.981 88.3487 302.087ZM91.4302 308.301C92.4084 308.301 93.1701 307.795 93.7151 306.784C94.2601 305.759 94.5326 304.193 94.5326 302.087C94.5326 300.3 94.3579 298.914 94.0086 297.931L89.3549 307.22C89.858 307.941 90.5498 308.301 91.4302 308.301Z" fill="url(#paint42_linear_175_1901)" fill-opacity="0.6"/>
<path d="M92.6879 331.886H95.7694V332.987H87.7827V331.886H91.3463V320.206L87.9504 322.222L87.3635 321.287L91.556 318.71H92.6879V331.886Z" fill="url(#paint43_linear_175_1901)" fill-opacity="0.6"/>
<path d="M92.6879 355.637H95.7694V356.738H87.7827V355.637H91.3463V343.957L87.9504 345.973L87.3635 345.038L91.556 342.461H92.6879V355.637Z" fill="url(#paint44_linear_175_1901)" fill-opacity="0.6"/>
<path d="M91.4302 366.004C92.9255 366.004 94.0575 366.635 94.8261 367.895C95.6087 369.142 96 370.957 96 373.34C96 375.723 95.6087 377.545 94.8261 378.806C94.0575 380.067 92.9255 380.697 91.4302 380.697C89.9489 380.697 88.8169 380.067 88.0343 378.806C87.2517 377.545 86.8604 375.723 86.8604 373.34C86.8604 370.971 87.2517 369.156 88.0343 367.895C88.8169 366.635 89.9489 366.004 91.4302 366.004ZM88.3487 373.34C88.3487 375.031 88.5024 376.354 88.8099 377.31L93.4636 368.103C92.9744 367.452 92.2966 367.126 91.4302 367.126C90.4659 367.126 89.7113 367.639 89.1663 368.664C88.6212 369.676 88.3487 371.234 88.3487 373.34ZM91.4302 379.554C92.4084 379.554 93.1701 379.049 93.7151 378.037C94.2601 377.012 94.5326 375.446 94.5326 373.34C94.5326 371.553 94.3579 370.168 94.0086 369.184L89.3549 378.474C89.858 379.194 90.5498 379.554 91.4302 379.554Z" fill="url(#paint45_linear_175_1901)" fill-opacity="0.6"/>
<path d="M91.4302 389.755C92.9255 389.755 94.0575 390.386 94.8261 391.646C95.6087 392.893 96 394.708 96 397.091C96 399.474 95.6087 401.296 94.8261 402.557C94.0575 403.818 92.9255 404.448 91.4302 404.448C89.9489 404.448 88.8169 403.818 88.0343 402.557C87.2517 401.296 86.8604 399.474 86.8604 397.091C86.8604 394.722 87.2517 392.907 88.0343 391.646C88.8169 390.386 89.9489 389.755 91.4302 389.755ZM88.3487 397.091C88.3487 398.782 88.5024 400.105 88.8099 401.061L93.4636 391.854C92.9744 391.203 92.2966 390.878 91.4302 390.878C90.4659 390.878 89.7113 391.39 89.1663 392.415C88.6212 393.427 88.3487 394.985 88.3487 397.091ZM91.4302 403.305C92.4084 403.305 93.1701 402.8 93.7151 401.788C94.2601 400.763 94.5326 399.197 94.5326 397.091C94.5326 395.304 94.3579 393.919 94.0086 392.935L89.3549 402.225C89.858 402.945 90.5498 403.305 91.4302 403.305Z" fill="url(#paint46_linear_175_1901)" fill-opacity="0.6"/>
<g opacity="0.6">
<path d="M919.93 -29C921.356 -29 922.436 -28.395 923.17 -27.1851C923.916 -25.9885 924.29 -24.2468 924.29 -21.9599C924.29 -19.673 923.916 -17.9246 923.17 -16.7147C922.436 -15.5048 921.356 -14.8998 919.93 -14.8998C918.517 -14.8998 917.437 -15.5048 916.69 -16.7147C915.943 -17.9246 915.57 -19.673 915.57 -21.9599C915.57 -24.2335 915.943 -25.9752 916.69 -27.1851C917.437 -28.395 918.517 -29 919.93 -29ZM916.99 -21.9599C916.99 -20.3378 917.137 -19.068 917.43 -18.1506L921.87 -26.9857C921.403 -27.6106 920.756 -27.923 919.93 -27.923C919.01 -27.923 918.29 -27.4311 917.77 -26.4472C917.25 -25.4766 916.99 -23.9808 916.99 -21.9599ZM919.93 -15.9967C920.863 -15.9967 921.59 -16.482 922.11 -17.4526C922.63 -18.4365 922.89 -19.9389 922.89 -21.9599C922.89 -23.675 922.723 -25.0046 922.39 -25.9486L917.95 -17.0338C918.43 -16.3424 919.09 -15.9967 919.93 -15.9967Z" fill="url(#paint47_linear_175_1901)"/>
<path d="M921.13 6.63655H924.07V7.69356H916.45V6.63655H919.85V-4.57181L916.61 -2.63727L916.05 -3.53474L920.05 -6.00776H921.13V6.63655Z" fill="url(#paint48_linear_175_1901)"/>
<path d="M919.93 16.5856C921.356 16.5856 922.436 17.1906 923.17 18.4005C923.916 19.5971 924.29 21.3389 924.29 23.6257C924.29 25.9126 923.916 27.661 923.17 28.8709C922.436 30.0808 921.356 30.6858 919.93 30.6858C918.517 30.6858 917.437 30.0808 916.69 28.8709C915.943 27.661 915.57 25.9126 915.57 23.6257C915.57 21.3522 915.943 19.6104 916.69 18.4005C917.437 17.1906 918.517 16.5856 919.93 16.5856ZM916.99 23.6257C916.99 25.2478 917.137 26.5176 917.43 27.435L921.87 18.5999C921.403 17.975 920.756 17.6626 919.93 17.6626C919.01 17.6626 918.29 18.1545 917.77 19.1384C917.25 20.109 916.99 21.6048 916.99 23.6257ZM919.93 29.5889C920.863 29.5889 921.59 29.1036 922.11 28.133C922.63 27.1491 922.89 25.6467 922.89 23.6257C922.89 21.9106 922.723 20.581 922.39 19.637L917.95 28.5518C918.43 29.2432 919.09 29.5889 919.93 29.5889Z" fill="url(#paint49_linear_175_1901)"/>
<path d="M921.13 52.2221H924.07V53.2792H916.45V52.2221H919.85V41.0138L916.61 42.9483L916.05 42.0509L920.05 39.5778H921.13V52.2221Z" fill="url(#paint50_linear_175_1901)"/>
<path d="M921.13 75.015H924.07V76.072H916.45V75.015H919.85V63.8066L916.61 65.7411L916.05 64.8437L920.05 62.3706H921.13V75.015Z" fill="url(#paint51_linear_175_1901)"/>
<path d="M919.93 84.964C921.356 84.964 922.436 85.569 923.17 86.7789C923.916 87.9755 924.29 89.7173 924.29 92.0041C924.29 94.291 923.916 96.0394 923.17 97.2493C922.436 98.4593 921.356 99.0642 919.93 99.0642C918.517 99.0642 917.437 98.4593 916.69 97.2493C915.943 96.0394 915.57 94.291 915.57 92.0041C915.57 89.7306 915.943 87.9888 916.69 86.7789C917.437 85.569 918.517 84.964 919.93 84.964ZM916.99 92.0041C916.99 93.6262 917.137 94.896 917.43 95.8134L921.87 86.9783C921.403 86.3534 920.756 86.041 919.93 86.041C919.01 86.041 918.29 86.5329 917.77 87.5168C917.25 88.4874 916.99 89.9832 916.99 92.0041ZM919.93 97.9673C920.863 97.9673 921.59 97.482 922.11 96.5114C922.63 95.5275 922.89 94.0251 922.89 92.0041C922.89 90.289 922.723 88.9594 922.39 88.0154L917.95 96.9302C918.43 97.6216 919.09 97.9673 919.93 97.9673Z" fill="url(#paint52_linear_175_1901)"/>
<path d="M921.13 120.601H924.07V121.658H916.45V120.601H919.85V109.392L916.61 111.327L916.05 110.429L920.05 107.956H921.13V120.601Z" fill="url(#paint53_linear_175_1901)"/>
<path d="M919.93 130.55C921.356 130.55 922.436 131.155 923.17 132.365C923.916 133.561 924.29 135.303 924.29 137.59C924.29 139.877 923.916 141.625 923.17 142.835C922.436 144.045 921.356 144.65 919.93 144.65C918.517 144.65 917.437 144.045 916.69 142.835C915.943 141.625 915.57 139.877 915.57 137.59C915.57 135.316 915.943 133.574 916.69 132.365C917.437 131.155 918.517 130.55 919.93 130.55ZM916.99 137.59C916.99 139.212 917.137 140.482 917.43 141.399L921.87 132.564C921.403 131.939 920.756 131.627 919.93 131.627C919.01 131.627 918.29 132.119 917.77 133.102C917.25 134.073 916.99 135.569 916.99 137.59ZM919.93 143.553C920.863 143.553 921.59 143.068 922.11 142.097C922.63 141.113 922.89 139.611 922.89 137.59C922.89 135.875 922.723 134.545 922.39 133.601L917.95 142.516C918.43 143.207 919.09 143.553 919.93 143.553Z" fill="url(#paint54_linear_175_1901)"/>
<path d="M919.93 153.342C921.356 153.342 922.436 153.947 923.17 155.157C923.916 156.354 924.29 158.096 924.29 160.383C924.29 162.669 923.916 164.418 923.17 165.628C922.436 166.838 921.356 167.443 919.93 167.443C918.517 167.443 917.437 166.838 916.69 165.628C915.943 164.418 915.57 162.669 915.57 160.383C915.57 158.109 915.943 156.367 916.69 155.157C917.437 153.947 918.517 153.342 919.93 153.342ZM916.99 160.383C916.99 162.005 917.137 163.274 917.43 164.192L921.87 155.357C921.403 154.732 920.756 154.419 919.93 154.419C919.01 154.419 918.29 154.911 917.77 155.895C917.25 156.866 916.99 158.362 916.99 160.383ZM919.93 166.346C920.863 166.346 921.59 165.86 922.11 164.89C922.63 163.906 922.89 162.404 922.89 160.383C922.89 158.667 922.723 157.338 922.39 156.394L917.95 165.309C918.43 166 919.09 166.346 919.93 166.346Z" fill="url(#paint55_linear_175_1901)"/>
<path d="M921.13 188.979H924.07V190.036H916.45V188.979H919.85V177.771L916.61 179.705L916.05 178.808L920.05 176.335H921.13V188.979Z" fill="url(#paint56_linear_175_1901)"/>
<path d="M919.93 198.928C921.356 198.928 922.436 199.533 923.17 200.743C923.916 201.94 924.29 203.681 924.29 205.968C924.29 208.255 923.916 210.003 923.17 211.213C922.436 212.423 921.356 213.028 919.93 213.028C918.517 213.028 917.437 212.423 916.69 211.213C915.943 210.003 915.57 208.255 915.57 205.968C915.57 203.695 915.943 201.953 916.69 200.743C917.437 199.533 918.517 198.928 919.93 198.928ZM916.99 205.968C916.99 207.59 917.137 208.86 917.43 209.777L921.87 200.942C921.403 200.317 920.756 200.005 919.93 200.005C919.01 200.005 918.29 200.497 917.77 201.481C917.25 202.451 916.99 203.947 916.99 205.968ZM919.93 211.931C920.863 211.931 921.59 211.446 922.11 210.475C922.63 209.492 922.89 207.989 922.89 205.968C922.89 204.253 922.723 202.923 922.39 201.979L917.95 210.894C918.43 211.586 919.09 211.931 919.93 211.931Z" fill="url(#paint57_linear_175_1901)"/>
<path d="M921.13 234.565H924.07V235.622H916.45V234.565H919.85V223.356L916.61 225.291L916.05 224.393L920.05 221.92H921.13V234.565Z" fill="url(#paint58_linear_175_1901)"/>
<path d="M921.13 257.357H924.07V258.414H916.45V257.357H919.85V246.149L916.61 248.084L916.05 247.186L920.05 244.713H921.13V257.357Z" fill="url(#paint59_linear_175_1901)"/>
<path d="M957.07 16.5856C958.497 16.5856 959.577 17.1906 960.31 18.4005C961.057 19.5971 961.43 21.3389 961.43 23.6257C961.43 25.9126 961.057 27.661 960.31 28.8709C959.577 30.0808 958.497 30.6858 957.07 30.6858C955.657 30.6858 954.577 30.0808 953.83 28.8709C953.084 27.661 952.71 25.9126 952.71 23.6257C952.71 21.3522 953.084 19.6104 953.83 18.4005C954.577 17.1906 955.657 16.5856 957.07 16.5856ZM954.13 23.6257C954.13 25.2478 954.277 26.5176 954.57 27.435L959.01 18.5999C958.543 17.975 957.897 17.6626 957.07 17.6626C956.15 17.6626 955.43 18.1545 954.91 19.1384C954.39 20.109 954.13 21.6048 954.13 23.6257ZM957.07 29.5889C958.003 29.5889 958.73 29.1036 959.25 28.133C959.77 27.1491 960.03 25.6467 960.03 23.6257C960.03 21.9106 959.863 20.581 959.53 19.637L955.09 28.5518C955.57 29.2432 956.23 29.5889 957.07 29.5889Z" fill="url(#paint60_linear_175_1901)"/>
<path d="M958.27 52.2221H961.21V53.2792H953.59V52.2221H956.99V41.0138L953.75 42.9483L953.19 42.0509L957.19 39.5778H958.27V52.2221Z" fill="url(#paint61_linear_175_1901)"/>
<path d="M957.07 62.1712C958.497 62.1712 959.577 62.7762 960.31 63.9861C961.057 65.1827 961.43 66.9245 961.43 69.2113C961.43 71.4982 961.057 73.2466 960.31 74.4565C959.577 75.6664 958.497 76.2714 957.07 76.2714C955.657 76.2714 954.577 75.6664 953.83 74.4565C953.084 73.2466 952.71 71.4982 952.71 69.2113C952.71 66.9378 953.084 65.196 953.83 63.9861C954.577 62.7762 955.657 62.1712 957.07 62.1712ZM954.13 69.2113C954.13 70.8334 954.277 72.1032 954.57 73.0206L959.01 64.1855C958.543 63.5606 957.897 63.2482 957.07 63.2482C956.15 63.2482 955.43 63.7401 954.91 64.724C954.39 65.6946 954.13 67.1904 954.13 69.2113ZM957.07 75.1745C958.003 75.1745 958.73 74.6892 959.25 73.7186C959.77 72.7347 960.03 71.2323 960.03 69.2113C960.03 67.4962 959.863 66.1666 959.53 65.2226L955.09 74.1374C955.57 74.8288 956.23 75.1745 957.07 75.1745Z" fill="url(#paint62_linear_175_1901)"/>
<path d="M957.07 84.964C958.497 84.964 959.577 85.569 960.31 86.7789C961.057 87.9755 961.43 89.7173 961.43 92.0041C961.43 94.291 961.057 96.0394 960.31 97.2493C959.577 98.4593 958.497 99.0642 957.07 99.0642C955.657 99.0642 954.577 98.4593 953.83 97.2493C953.084 96.0394 952.71 94.291 952.71 92.0041C952.71 89.7306 953.084 87.9888 953.83 86.7789C954.577 85.569 955.657 84.964 957.07 84.964ZM954.13 92.0041C954.13 93.6262 954.277 94.896 954.57 95.8134L959.01 86.9783C958.543 86.3534 957.897 86.041 957.07 86.041C956.15 86.041 955.43 86.5329 954.91 87.5168C954.39 88.4874 954.13 89.9832 954.13 92.0041ZM957.07 97.9673C958.003 97.9673 958.73 97.482 959.25 96.5114C959.77 95.5275 960.03 94.0251 960.03 92.0041C960.03 90.289 959.863 88.9594 959.53 88.0154L955.09 96.9302C955.57 97.6216 956.23 97.9673 957.07 97.9673Z" fill="url(#paint63_linear_175_1901)"/>
<path d="M958.27 120.601H961.21V121.658H953.59V120.601H956.99V109.392L953.75 111.327L953.19 110.429L957.19 107.956H958.27V120.601Z" fill="url(#paint64_linear_175_1901)"/>
<path d="M957.07 130.55C958.497 130.55 959.577 131.155 960.31 132.365C961.057 133.561 961.43 135.303 961.43 137.59C961.43 139.877 961.057 141.625 960.31 142.835C959.577 144.045 958.497 144.65 957.07 144.65C955.657 144.65 954.577 144.045 953.83 142.835C953.084 141.625 952.71 139.877 952.71 137.59C952.71 135.316 953.084 133.574 953.83 132.365C954.577 131.155 955.657 130.55 957.07 130.55ZM954.13 137.59C954.13 139.212 954.277 140.482 954.57 141.399L959.01 132.564C958.543 131.939 957.897 131.627 957.07 131.627C956.15 131.627 955.43 132.119 954.91 133.102C954.39 134.073 954.13 135.569 954.13 137.59ZM957.07 143.553C958.003 143.553 958.73 143.068 959.25 142.097C959.77 141.113 960.03 139.611 960.03 137.59C960.03 135.875 959.863 134.545 959.53 133.601L955.09 142.516C955.57 143.207 956.23 143.553 957.07 143.553Z" fill="url(#paint65_linear_175_1901)"/>
<path d="M958.27 166.186H961.21V167.243H953.59V166.186H956.99V154.978L953.75 156.912L953.19 156.015L957.19 153.542H958.27V166.186Z" fill="url(#paint66_linear_175_1901)"/>
<path d="M957.07 176.135C958.497 176.135 959.577 176.74 960.31 177.95C961.057 179.147 961.43 180.888 961.43 183.175C961.43 185.462 961.057 187.211 960.31 188.421C959.577 189.63 958.497 190.235 957.07 190.235C955.657 190.235 954.577 189.63 953.83 188.421C953.084 187.211 952.71 185.462 952.71 183.175C952.71 180.902 953.084 179.16 953.83 177.95C954.577 176.74 955.657 176.135 957.07 176.135ZM954.13 183.175C954.13 184.797 954.277 186.067 954.57 186.985L959.01 178.15C958.543 177.525 957.897 177.212 957.07 177.212C956.15 177.212 955.43 177.704 954.91 178.688C954.39 179.659 954.13 181.154 954.13 183.175ZM957.07 189.139C958.003 189.139 958.73 188.653 959.25 187.683C959.77 186.699 960.03 185.196 960.03 183.175C960.03 181.46 959.863 180.131 959.53 179.187L955.09 188.101C955.57 188.793 956.23 189.139 957.07 189.139Z" fill="url(#paint67_linear_175_1901)"/>
<path d="M957.07 198.928C958.497 198.928 959.577 199.533 960.31 200.743C961.057 201.94 961.43 203.681 961.43 205.968C961.43 208.255 961.057 210.003 960.31 211.213C959.577 212.423 958.497 213.028 957.07 213.028C955.657 213.028 954.577 212.423 953.83 211.213C953.084 210.003 952.71 208.255 952.71 205.968C952.71 203.695 953.084 201.953 953.83 200.743C954.577 199.533 955.657 198.928 957.07 198.928ZM954.13 205.968C954.13 207.59 954.277 208.86 954.57 209.777L959.01 200.942C958.543 200.317 957.897 200.005 957.07 200.005C956.15 200.005 955.43 200.497 954.91 201.481C954.39 202.451 954.13 203.947 954.13 205.968ZM957.07 211.931C958.003 211.931 958.73 211.446 959.25 210.475C959.77 209.492 960.03 207.989 960.03 205.968C960.03 204.253 959.863 202.923 959.53 201.979L955.09 210.894C955.57 211.586 956.23 211.931 957.07 211.931Z" fill="url(#paint68_linear_175_1901)"/>
<path d="M958.27 234.565H961.21V235.622H953.59V234.565H956.99V223.356L953.75 225.291L953.19 224.393L957.19 221.92H958.27V234.565Z" fill="url(#paint69_linear_175_1901)"/>
<path d="M957.07 244.514C958.497 244.514 959.577 245.119 960.31 246.329C961.057 247.525 961.43 249.267 961.43 251.554C961.43 253.841 961.057 255.589 960.31 256.799C959.577 258.009 958.497 258.614 957.07 258.614C955.657 258.614 954.577 258.009 953.83 256.799C953.084 255.589 952.71 253.841 952.71 251.554C952.71 249.28 953.084 247.538 953.83 246.329C954.577 245.119 955.657 244.514 957.07 244.514ZM954.13 251.554C954.13 253.176 954.277 254.446 954.57 255.363L959.01 246.528C958.543 245.903 957.897 245.591 957.07 245.591C956.15 245.591 955.43 246.083 954.91 247.066C954.39 248.037 954.13 249.533 954.13 251.554ZM957.07 257.517C958.003 257.517 958.73 257.032 959.25 256.061C959.77 255.077 960.03 253.575 960.03 251.554C960.03 249.839 959.863 248.509 959.53 247.565L955.09 256.48C955.57 257.171 956.23 257.517 957.07 257.517Z" fill="url(#paint70_linear_175_1901)"/>
<path d="M958.27 280.15H961.21V281.207H953.59V280.15H956.99V268.942L953.75 270.876L953.19 269.979L957.19 267.506H958.27V280.15Z" fill="url(#paint71_linear_175_1901)"/>
<path d="M958.27 302.943H961.21V304H953.59V302.943H956.99V291.735L953.75 293.669L953.19 292.772L957.19 290.299H958.27V302.943Z" fill="url(#paint72_linear_175_1901)"/>
<path d="M901.36 39.3784C902.786 39.3784 903.866 39.9834 904.599 41.1933C905.346 42.3899 905.719 44.1317 905.719 46.4185C905.719 48.7054 905.346 50.4538 904.599 51.6637C903.866 52.8736 902.786 53.4786 901.36 53.4786C899.946 53.4786 898.867 52.8736 898.12 51.6637C897.373 50.4538 897 48.7054 897 46.4185C897 44.145 897.373 42.4032 898.12 41.1933C898.867 39.9834 899.946 39.3784 901.36 39.3784ZM898.42 46.4185C898.42 48.0406 898.567 49.3104 898.86 50.2278L903.3 41.3927C902.833 40.7678 902.186 40.4554 901.36 40.4554C900.44 40.4554 899.72 40.9473 899.2 41.9312C898.68 42.9018 898.42 44.3976 898.42 46.4185ZM901.36 52.3817C902.293 52.3817 903.02 51.8964 903.54 50.9258C904.06 49.9419 904.319 48.4395 904.319 46.4185C904.319 44.7034 904.153 43.3738 903.82 42.4298L899.38 51.3446C899.86 52.036 900.52 52.3817 901.36 52.3817Z" fill="url(#paint73_linear_175_1901)"/>
<path d="M901.36 62.1712C902.786 62.1712 903.866 62.7762 904.599 63.9861C905.346 65.1827 905.719 66.9245 905.719 69.2113C905.719 71.4982 905.346 73.2466 904.599 74.4565C903.866 75.6664 902.786 76.2714 901.36 76.2714C899.946 76.2714 898.867 75.6664 898.12 74.4565C897.373 73.2466 897 71.4982 897 69.2113C897 66.9378 897.373 65.196 898.12 63.9861C898.867 62.7762 899.946 62.1712 901.36 62.1712ZM898.42 69.2113C898.42 70.8334 898.567 72.1032 898.86 73.0206L903.3 64.1855C902.833 63.5606 902.186 63.2482 901.36 63.2482C900.44 63.2482 899.72 63.7401 899.2 64.724C898.68 65.6946 898.42 67.1904 898.42 69.2113ZM901.36 75.1745C902.293 75.1745 903.02 74.6892 903.54 73.7186C904.06 72.7347 904.319 71.2323 904.319 69.2113C904.319 67.4962 904.153 66.1666 903.82 65.2226L899.38 74.1374C899.86 74.8288 900.52 75.1745 901.36 75.1745Z" fill="url(#paint74_linear_175_1901)"/>
<path d="M902.56 97.8078H905.499V98.8648H897.88V97.8078H901.28V86.5994L898.04 88.5339L897.48 87.6365L901.48 85.1635H902.56V97.8078Z" fill="url(#paint75_linear_175_1901)"/>
<path d="M901.36 107.757C902.786 107.757 903.866 108.362 904.599 109.572C905.346 110.768 905.719 112.51 905.719 114.797C905.719 117.084 905.346 118.832 904.599 120.042C903.866 121.252 902.786 121.857 901.36 121.857C899.946 121.857 898.867 121.252 898.12 120.042C897.373 118.832 897 117.084 897 114.797C897 112.523 897.373 110.782 898.12 109.572C898.867 108.362 899.946 107.757 901.36 107.757ZM898.42 114.797C898.42 116.419 898.567 117.689 898.86 118.606L903.3 109.771C902.833 109.146 902.186 108.834 901.36 108.834C900.44 108.834 899.72 109.326 899.2 110.31C898.68 111.28 898.42 112.776 898.42 114.797ZM901.36 120.76C902.293 120.76 903.02 120.275 903.54 119.304C904.06 118.32 904.319 116.818 904.319 114.797C904.319 113.082 904.153 111.752 903.82 110.808L899.38 119.723C899.86 120.414 900.52 120.76 901.36 120.76Z" fill="url(#paint76_linear_175_1901)"/>
<path d="M902.56 143.393H905.499V144.45H897.88V143.393H901.28V132.185L898.04 134.12L897.48 133.222L901.48 130.749H902.56V143.393Z" fill="url(#paint77_linear_175_1901)"/>
<path d="M902.56 166.186H905.499V167.243H897.88V166.186H901.28V154.978L898.04 156.912L897.48 156.015L901.48 153.542H902.56V166.186Z" fill="url(#paint78_linear_175_1901)"/>
<path d="M939.7 6.63655H942.64V7.69356H935.02V6.63655H938.42V-4.57181L935.18 -2.63727L934.62 -3.53474L938.62 -6.00776H939.7V6.63655Z" fill="url(#paint79_linear_175_1901)"/>
<path d="M938.5 16.5856C939.927 16.5856 941.006 17.1906 941.74 18.4005C942.486 19.5971 942.86 21.3389 942.86 23.6257C942.86 25.9126 942.486 27.661 941.74 28.8709C941.006 30.0808 939.927 30.6858 938.5 30.6858C937.087 30.6858 936.007 30.0808 935.26 28.8709C934.514 27.661 934.14 25.9126 934.14 23.6257C934.14 21.3522 934.514 19.6104 935.26 18.4005C936.007 17.1906 937.087 16.5856 938.5 16.5856ZM935.56 23.6257C935.56 25.2478 935.707 26.5176 936 27.435L940.44 18.5999C939.973 17.975 939.327 17.6626 938.5 17.6626C937.58 17.6626 936.86 18.1545 936.34 19.1384C935.82 20.109 935.56 21.6048 935.56 23.6257ZM938.5 29.5889C939.433 29.5889 940.16 29.1036 940.68 28.133C941.2 27.1491 941.46 25.6467 941.46 23.6257C941.46 21.9106 941.293 20.581 940.96 19.637L936.52 28.5518C937 29.2432 937.66 29.5889 938.5 29.5889Z" fill="url(#paint80_linear_175_1901)"/>
<path d="M939.7 52.2221H942.64V53.2792H935.02V52.2221H938.42V41.0138L935.18 42.9483L934.62 42.0509L938.62 39.5778H939.7V52.2221Z" fill="url(#paint81_linear_175_1901)"/>
<path d="M939.7 75.015H942.64V76.072H935.02V75.015H938.42V63.8066L935.18 65.7411L934.62 64.8437L938.62 62.3706H939.7V75.015Z" fill="url(#paint82_linear_175_1901)"/>
<path d="M938.5 84.964C939.927 84.964 941.006 85.569 941.74 86.7789C942.486 87.9755 942.86 89.7173 942.86 92.0041C942.86 94.291 942.486 96.0394 941.74 97.2493C941.006 98.4593 939.927 99.0642 938.5 99.0642C937.087 99.0642 936.007 98.4593 935.26 97.2493C934.514 96.0394 934.14 94.291 934.14 92.0041C934.14 89.7306 934.514 87.9888 935.26 86.7789C936.007 85.569 937.087 84.964 938.5 84.964ZM935.56 92.0041C935.56 93.6262 935.707 94.896 936 95.8134L940.44 86.9783C939.973 86.3534 939.327 86.041 938.5 86.041C937.58 86.041 936.86 86.5329 936.34 87.5168C935.82 88.4874 935.56 89.9832 935.56 92.0041ZM938.5 97.9673C939.433 97.9673 940.16 97.482 940.68 96.5114C941.2 95.5275 941.46 94.0251 941.46 92.0041C941.46 90.289 941.293 88.9594 940.96 88.0154L936.52 96.9302C937 97.6216 937.66 97.9673 938.5 97.9673Z" fill="url(#paint83_linear_175_1901)"/>
<path d="M939.7 120.601H942.64V121.658H935.02V120.601H938.42V109.392L935.18 111.327L934.62 110.429L938.62 107.956H939.7V120.601Z" fill="url(#paint84_linear_175_1901)"/>
<path d="M939.7 143.393H942.64V144.45H935.02V143.393H938.42V132.185L935.18 134.12L934.62 133.222L938.62 130.749H939.7V143.393Z" fill="url(#paint85_linear_175_1901)"/>
<path d="M938.5 153.342C939.927 153.342 941.006 153.947 941.74 155.157C942.486 156.354 942.86 158.096 942.86 160.383C942.86 162.669 942.486 164.418 941.74 165.628C941.006 166.838 939.927 167.443 938.5 167.443C937.087 167.443 936.007 166.838 935.26 165.628C934.514 164.418 934.14 162.669 934.14 160.383C934.14 158.109 934.514 156.367 935.26 155.157C936.007 153.947 937.087 153.342 938.5 153.342ZM935.56 160.383C935.56 162.005 935.707 163.274 936 164.192L940.44 155.357C939.973 154.732 939.327 154.419 938.5 154.419C937.58 154.419 936.86 154.911 936.34 155.895C935.82 156.866 935.56 158.362 935.56 160.383ZM938.5 166.346C939.433 166.346 940.16 165.86 940.68 164.89C941.2 163.906 941.46 162.404 941.46 160.383C941.46 158.667 941.293 157.338 940.96 156.394L936.52 165.309C937 166 937.66 166.346 938.5 166.346Z" fill="url(#paint86_linear_175_1901)"/>
<path d="M939.7 188.979H942.64V190.036H935.02V188.979H938.42V177.771L935.18 179.705L934.62 178.808L938.62 176.335H939.7V188.979Z" fill="url(#paint87_linear_175_1901)"/>
<path d="M938.5 198.928C939.927 198.928 941.006 199.533 941.74 200.743C942.486 201.94 942.86 203.681 942.86 205.968C942.86 208.255 942.486 210.003 941.74 211.213C941.006 212.423 939.927 213.028 938.5 213.028C937.087 213.028 936.007 212.423 935.26 211.213C934.514 210.003 934.14 208.255 934.14 205.968C934.14 203.695 934.514 201.953 935.26 200.743C936.007 199.533 937.087 198.928 938.5 198.928ZM935.56 205.968C935.56 207.59 935.707 208.86 936 209.777L940.44 200.942C939.973 200.317 939.327 200.005 938.5 200.005C937.58 200.005 936.86 200.497 936.34 201.481C935.82 202.451 935.56 203.947 935.56 205.968ZM938.5 211.931C939.433 211.931 940.16 211.446 940.68 210.475C941.2 209.492 941.46 207.989 941.46 205.968C941.46 204.253 941.293 202.923 940.96 201.979L936.52 210.894C937 211.586 937.66 211.931 938.5 211.931Z" fill="url(#paint88_linear_175_1901)"/>
<path d="M975.64 -6.2072C977.067 -6.2072 978.147 -5.60224 978.88 -4.39232C979.627 -3.1957 980 -1.45395 980 0.832928C980 3.11981 979.627 4.86821 978.88 6.07812C978.147 7.28804 977.067 7.893 975.64 7.893C974.227 7.893 973.147 7.28804 972.401 6.07812C971.654 4.86821 971.281 3.11981 971.281 0.832928C971.281 -1.44065 971.654 -3.1824 972.401 -4.39232C973.147 -5.60224 974.227 -6.2072 975.64 -6.2072ZM972.7 0.832928C972.7 2.45502 972.847 3.72477 973.14 4.64218L977.58 -4.19288C977.114 -4.81779 976.467 -5.13024 975.64 -5.13024C974.72 -5.13024 974 -4.63829 973.48 -3.6544C972.96 -2.68381 972.7 -1.18803 972.7 0.832928ZM975.64 6.7961C976.574 6.7961 977.3 6.3108 977.82 5.34021C978.34 4.35632 978.6 2.85389 978.6 0.832928C978.6 -0.88223 978.433 -2.21181 978.1 -3.15581L973.66 5.75902C974.14 6.4504 974.8 6.7961 975.64 6.7961Z" fill="url(#paint89_linear_175_1901)"/>
<path d="M976.84 29.4293H979.78V30.4864H972.161V29.4293H975.56V18.221L972.321 20.1555L971.761 19.2581L975.76 16.785H976.84V29.4293Z" fill="url(#paint90_linear_175_1901)"/>
<path d="M976.84 52.2221H979.78V53.2792H972.161V52.2221H975.56V41.0138L972.321 42.9483L971.761 42.0509L975.76 39.5778H976.84V52.2221Z" fill="url(#paint91_linear_175_1901)"/>
<path d="M975.64 62.1712C977.067 62.1712 978.147 62.7762 978.88 63.9861C979.627 65.1827 980 66.9245 980 69.2113C980 71.4982 979.627 73.2466 978.88 74.4565C978.147 75.6664 977.067 76.2714 975.64 76.2714C974.227 76.2714 973.147 75.6664 972.401 74.4565C971.654 73.2466 971.281 71.4982 971.281 69.2113C971.281 66.9378 971.654 65.196 972.401 63.9861C973.147 62.7762 974.227 62.1712 975.64 62.1712ZM972.7 69.2113C972.7 70.8334 972.847 72.1032 973.14 73.0206L977.58 64.1855C977.114 63.5606 976.467 63.2482 975.64 63.2482C974.72 63.2482 974 63.7401 973.48 64.724C972.96 65.6946 972.7 67.1904 972.7 69.2113ZM975.64 75.1745C976.574 75.1745 977.3 74.6892 977.82 73.7186C978.34 72.7347 978.6 71.2323 978.6 69.2113C978.6 67.4962 978.433 66.1666 978.1 65.2226L973.66 74.1374C974.14 74.8288 974.8 75.1745 975.64 75.1745Z" fill="url(#paint92_linear_175_1901)"/>
<path d="M975.64 84.964C977.067 84.964 978.147 85.569 978.88 86.7789C979.627 87.9755 980 89.7173 980 92.0041C980 94.291 979.627 96.0394 978.88 97.2493C978.147 98.4593 977.067 99.0642 975.64 99.0642C974.227 99.0642 973.147 98.4593 972.401 97.2493C971.654 96.0394 971.281 94.291 971.281 92.0041C971.281 89.7306 971.654 87.9888 972.401 86.7789C973.147 85.569 974.227 84.964 975.64 84.964ZM972.7 92.0041C972.7 93.6262 972.847 94.896 973.14 95.8134L977.58 86.9783C977.114 86.3534 976.467 86.041 975.64 86.041C974.72 86.041 974 86.5329 973.48 87.5168C972.96 88.4874 972.7 89.9832 972.7 92.0041ZM975.64 97.9673C976.574 97.9673 977.3 97.482 977.82 96.5114C978.34 95.5275 978.6 94.0251 978.6 92.0041C978.6 90.289 978.433 88.9594 978.1 88.0154L973.66 96.9302C974.14 97.6216 974.8 97.9673 975.64 97.9673Z" fill="url(#paint93_linear_175_1901)"/>
</g>
</g>
<defs>
<filter id="filter0_f_175_1901" x="-558.19" y="-715.19" width="2141.38" height="1500.38" filterUnits="userSpaceOnUse" color-interpolation-filters="sRGB">
<feFlood flood-opacity="0" result="BackgroundImageFix"/>
<feBlend mode="normal" in="SourceGraphic" in2="BackgroundImageFix" result="shape"/>
<feGaussianBlur stdDeviation="200.095" result="effect1_foregroundBlur_175_1901"/>
</filter>
<linearGradient id="paint0_linear_175_1901" x1="52.5" y1="271" x2="52.5" y2="582.381" gradientUnits="userSpaceOnUse">
<stop stop-color="#F7DD43"/>
<stop offset="1" stop-color="#F7DD43" stop-opacity="0"/>
</linearGradient>
<linearGradient id="paint1_linear_175_1901" x1="52.5" y1="271" x2="52.5" y2="582.381" gradientUnits="userSpaceOnUse">
<stop stop-color="#F7DD43"/>
<stop offset="1" stop-color="#F7DD43" stop-opacity="0"/>
</linearGradient>
<linearGradient id="paint2_linear_175_1901" x1="52.5" y1="271" x2="52.5" y2="582.381" gradientUnits="userSpaceOnUse">
<stop stop-color="#F7DD43"/>
<stop offset="1" stop-color="#F7DD43" stop-opacity="0"/>
</linearGradient>
<linearGradient id="paint3_linear_175_1901" x1="52.5" y1="271" x2="52.5" y2="582.381" gradientUnits="userSpaceOnUse">
<stop stop-color="#F7DD43"/>
<stop offset="1" stop-color="#F7DD43" stop-opacity="0"/>
</linearGradient>
<linearGradient id="paint4_linear_175_1901" x1="52.5" y1="271" x2="52.5" y2="582.381" gradientUnits="userSpaceOnUse">
<stop stop-color="#F7DD43"/>
<stop offset="1" stop-color="#F7DD43" stop-opacity="0"/>
</linearGradient>
<linearGradient id="paint5_linear_175_1901" x1="52.5" y1="271" x2="52.5" y2="582.381" gradientUnits="userSpaceOnUse">
<stop stop-color="#F7DD43"/>
<stop offset="1" stop-color="#F7DD43" stop-opacity="0"/>
</linearGradient>
<linearGradient id="paint6_linear_175_1901" x1="52.5" y1="271" x2="52.5" y2="582.381" gradientUnits="userSpaceOnUse">
<stop stop-color="#F7DD43"/>
<stop offset="1" stop-color="#F7DD43" stop-opacity="0"/>
</linearGradient>
<linearGradient id="paint7_linear_175_1901" x1="52.5" y1="271" x2="52.5" y2="582.381" gradientUnits="userSpaceOnUse">
<stop stop-color="#F7DD43"/>
<stop offset="1" stop-color="#F7DD43" stop-opacity="0"/>
</linearGradient>
<linearGradient id="paint8_linear_175_1901" x1="52.5" y1="271" x2="52.5" y2="582.381" gradientUnits="userSpaceOnUse">
<stop stop-color="#F7DD43"/>
<stop offset="1" stop-color="#F7DD43" stop-opacity="0"/>
</linearGradient>
<linearGradient id="paint9_linear_175_1901" x1="52.5" y1="271" x2="52.5" y2="582.381" gradientUnits="userSpaceOnUse">
<stop stop-color="#F7DD43"/>
<stop offset="1" stop-color="#F7DD43" stop-opacity="0"/>
</linearGradient>
<linearGradient id="paint10_linear_175_1901" x1="52.5" y1="271" x2="52.5" y2="582.381" gradientUnits="userSpaceOnUse">
<stop stop-color="#F7DD43"/>
<stop offset="1" stop-color="#F7DD43" stop-opacity="0"/>
</linearGradient>
<linearGradient id="paint11_linear_175_1901" x1="52.5" y1="271" x2="52.5" y2="582.381" gradientUnits="userSpaceOnUse">
<stop stop-color="#F7DD43"/>
<stop offset="1" stop-color="#F7DD43" stop-opacity="0"/>
</linearGradient>
<linearGradient id="paint12_linear_175_1901" x1="52.5" y1="271" x2="52.5" y2="582.381" gradientUnits="userSpaceOnUse">
<stop stop-color="#F7DD43"/>
<stop offset="1" stop-color="#F7DD43" stop-opacity="0"/>
</linearGradient>
<linearGradient id="paint13_linear_175_1901" x1="52.5" y1="271" x2="52.5" y2="582.381" gradientUnits="userSpaceOnUse">
<stop stop-color="#F7DD43"/>
<stop offset="1" stop-color="#F7DD43" stop-opacity="0"/>
</linearGradient>
<linearGradient id="paint14_linear_175_1901" x1="52.5" y1="271" x2="52.5" y2="582.381" gradientUnits="userSpaceOnUse">
<stop stop-color="#F7DD43"/>
<stop offset="1" stop-color="#F7DD43" stop-opacity="0"/>
</linearGradient>
<linearGradient id="paint15_linear_175_1901" x1="52.5" y1="271" x2="52.5" y2="582.381" gradientUnits="userSpaceOnUse">
<stop stop-color="#F7DD43"/>
<stop offset="1" stop-color="#F7DD43" stop-opacity="0"/>
</linearGradient>
<linearGradient id="paint16_linear_175_1901" x1="52.5" y1="271" x2="52.5" y2="582.381" gradientUnits="userSpaceOnUse">
<stop stop-color="#F7DD43"/>
<stop offset="1" stop-color="#F7DD43" stop-opacity="0"/>
</linearGradient>
<linearGradient id="paint17_linear_175_1901" x1="52.5" y1="271" x2="52.5" y2="582.381" gradientUnits="userSpaceOnUse">
<stop stop-color="#F7DD43"/>
<stop offset="1" stop-color="#F7DD43" stop-opacity="0"/>
</linearGradient>
<linearGradient id="paint18_linear_175_1901" x1="52.5" y1="271" x2="52.5" y2="582.381" gradientUnits="userSpaceOnUse">
<stop stop-color="#F7DD43"/>
<stop offset="1" stop-color="#F7DD43" stop-opacity="0"/>
</linearGradient>
<linearGradient id="paint19_linear_175_1901" x1="52.5" y1="271" x2="52.5" y2="582.381" gradientUnits="userSpaceOnUse">
<stop stop-color="#F7DD43"/>
<stop offset="1" stop-color="#F7DD43" stop-opacity="0"/>
</linearGradient>
<linearGradient id="paint20_linear_175_1901" x1="52.5" y1="271" x2="52.5" y2="582.381" gradientUnits="userSpaceOnUse">
<stop stop-color="#F7DD43"/>
<stop offset="1" stop-color="#F7DD43" stop-opacity="0"/>
</linearGradient>
<linearGradient id="paint21_linear_175_1901" x1="52.5" y1="271" x2="52.5" y2="582.381" gradientUnits="userSpaceOnUse">
<stop stop-color="#F7DD43"/>
<stop offset="1" stop-color="#F7DD43" stop-opacity="0"/>
</linearGradient>
<linearGradient id="paint22_linear_175_1901" x1="52.5" y1="271" x2="52.5" y2="582.381" gradientUnits="userSpaceOnUse">
<stop stop-color="#F7DD43"/>
<stop offset="1" stop-color="#F7DD43" stop-opacity="0"/>
</linearGradient>
<linearGradient id="paint23_linear_175_1901" x1="52.5" y1="271" x2="52.5" y2="582.381" gradientUnits="userSpaceOnUse">
<stop stop-color="#F7DD43"/>
<stop offset="1" stop-color="#F7DD43" stop-opacity="0"/>
</linearGradient>
<linearGradient id="paint24_linear_175_1901" x1="52.5" y1="271" x2="52.5" y2="582.381" gradientUnits="userSpaceOnUse">
<stop stop-color="#F7DD43"/>
<stop offset="1" stop-color="#F7DD43" stop-opacity="0"/>
</linearGradient>
<linearGradient id="paint25_linear_175_1901" x1="52.5" y1="271" x2="52.5" y2="582.381" gradientUnits="userSpaceOnUse">
<stop stop-color="#F7DD43"/>
<stop offset="1" stop-color="#F7DD43" stop-opacity="0"/>
</linearGradient>
<linearGradient id="paint26_linear_175_1901" x1="52.5" y1="271" x2="52.5" y2="582.381" gradientUnits="userSpaceOnUse">
<stop stop-color="#F7DD43"/>
<stop offset="1" stop-color="#F7DD43" stop-opacity="0"/>
</linearGradient>
<linearGradient id="paint27_linear_175_1901" x1="52.5" y1="271" x2="52.5" y2="582.381" gradientUnits="userSpaceOnUse">
<stop stop-color="#F7DD43"/>
<stop offset="1" stop-color="#F7DD43" stop-opacity="0"/>
</linearGradient>
<linearGradient id="paint28_linear_175_1901" x1="52.5" y1="271" x2="52.5" y2="582.381" gradientUnits="userSpaceOnUse">
<stop stop-color="#F7DD43"/>
<stop offset="1" stop-color="#F7DD43" stop-opacity="0"/>
</linearGradient>
<linearGradient id="paint29_linear_175_1901" x1="52.5" y1="271" x2="52.5" y2="582.381" gradientUnits="userSpaceOnUse">
<stop stop-color="#F7DD43"/>
<stop offset="1" stop-color="#F7DD43" stop-opacity="0"/>
</linearGradient>
<linearGradient id="paint30_linear_175_1901" x1="52.5" y1="271" x2="52.5" y2="582.381" gradientUnits="userSpaceOnUse">
<stop stop-color="#F7DD43"/>
<stop offset="1" stop-color="#F7DD43" stop-opacity="0"/>
</linearGradient>
<linearGradient id="paint31_linear_175_1901" x1="52.5" y1="271" x2="52.5" y2="582.381" gradientUnits="userSpaceOnUse">
<stop stop-color="#F7DD43"/>
<stop offset="1" stop-color="#F7DD43" stop-opacity="0"/>
</linearGradient>
<linearGradient id="paint32_linear_175_1901" x1="52.5" y1="271" x2="52.5" y2="582.381" gradientUnits="userSpaceOnUse">
<stop stop-color="#F7DD43"/>
<stop offset="1" stop-color="#F7DD43" stop-opacity="0"/>
</linearGradient>
<linearGradient id="paint33_linear_175_1901" x1="52.5" y1="271" x2="52.5" y2="582.381" gradientUnits="userSpaceOnUse">
<stop stop-color="#F7DD43"/>
<stop offset="1" stop-color="#F7DD43" stop-opacity="0"/>
</linearGradient>
<linearGradient id="paint34_linear_175_1901" x1="52.5" y1="271" x2="52.5" y2="582.381" gradientUnits="userSpaceOnUse">
<stop stop-color="#F7DD43"/>
<stop offset="1" stop-color="#F7DD43" stop-opacity="0"/>
</linearGradient>
<linearGradient id="paint35_linear_175_1901" x1="52.5" y1="271" x2="52.5" y2="582.381" gradientUnits="userSpaceOnUse">
<stop stop-color="#F7DD43"/>
<stop offset="1" stop-color="#F7DD43" stop-opacity="0"/>
</linearGradient>
<linearGradient id="paint36_linear_175_1901" x1="52.5" y1="271" x2="52.5" y2="582.381" gradientUnits="userSpaceOnUse">
<stop stop-color="#F7DD43"/>
<stop offset="1" stop-color="#F7DD43" stop-opacity="0"/>
</linearGradient>
<linearGradient id="paint37_linear_175_1901" x1="52.5" y1="271" x2="52.5" y2="582.381" gradientUnits="userSpaceOnUse">
<stop stop-color="#F7DD43"/>
<stop offset="1" stop-color="#F7DD43" stop-opacity="0"/>
</linearGradient>
<linearGradient id="paint38_linear_175_1901" x1="52.5" y1="271" x2="52.5" y2="582.381" gradientUnits="userSpaceOnUse">
<stop stop-color="#F7DD43"/>
<stop offset="1" stop-color="#F7DD43" stop-opacity="0"/>
</linearGradient>
<linearGradient id="paint39_linear_175_1901" x1="52.5" y1="271" x2="52.5" y2="582.381" gradientUnits="userSpaceOnUse">
<stop stop-color="#F7DD43"/>
<stop offset="1" stop-color="#F7DD43" stop-opacity="0"/>
</linearGradient>
<linearGradient id="paint40_linear_175_1901" x1="52.5" y1="271" x2="52.5" y2="582.381" gradientUnits="userSpaceOnUse">
<stop stop-color="#F7DD43"/>
<stop offset="1" stop-color="#F7DD43" stop-opacity="0"/>
</linearGradient>
<linearGradient id="paint41_linear_175_1901" x1="52.5" y1="271" x2="52.5" y2="582.381" gradientUnits="userSpaceOnUse">
<stop stop-color="#F7DD43"/>
<stop offset="1" stop-color="#F7DD43" stop-opacity="0"/>
</linearGradient>
<linearGradient id="paint42_linear_175_1901" x1="52.5" y1="271" x2="52.5" y2="582.381" gradientUnits="userSpaceOnUse">
<stop stop-color="#F7DD43"/>
<stop offset="1" stop-color="#F7DD43" stop-opacity="0"/>
</linearGradient>
<linearGradient id="paint43_linear_175_1901" x1="52.5" y1="271" x2="52.5" y2="582.381" gradientUnits="userSpaceOnUse">
<stop stop-color="#F7DD43"/>
<stop offset="1" stop-color="#F7DD43" stop-opacity="0"/>
</linearGradient>
<linearGradient id="paint44_linear_175_1901" x1="52.5" y1="271" x2="52.5" y2="582.381" gradientUnits="userSpaceOnUse">
<stop stop-color="#F7DD43"/>
<stop offset="1" stop-color="#F7DD43" stop-opacity="0"/>
</linearGradient>
<linearGradient id="paint45_linear_175_1901" x1="52.5" y1="271" x2="52.5" y2="582.381" gradientUnits="userSpaceOnUse">
<stop stop-color="#F7DD43"/>
<stop offset="1" stop-color="#F7DD43" stop-opacity="0"/>
</linearGradient>
<linearGradient id="paint46_linear_175_1901" x1="52.5" y1="271" x2="52.5" y2="582.381" gradientUnits="userSpaceOnUse">
<stop stop-color="#F7DD43"/>
<stop offset="1" stop-color="#F7DD43" stop-opacity="0"/>
</linearGradient>
<linearGradient id="paint47_linear_175_1901" x1="938.5" y1="-29" x2="938.5" y2="269.818" gradientUnits="userSpaceOnUse">
<stop stop-color="#F7DD43"/>
<stop offset="1" stop-color="#F7DD43" stop-opacity="0"/>
</linearGradient>
<linearGradient id="paint48_linear_175_1901" x1="938.5" y1="-29" x2="938.5" y2="269.818" gradientUnits="userSpaceOnUse">
<stop stop-color="#F7DD43"/>
<stop offset="1" stop-color="#F7DD43" stop-opacity="0"/>
</linearGradient>
<linearGradient id="paint49_linear_175_1901" x1="938.5" y1="-29" x2="938.5" y2="269.818" gradientUnits="userSpaceOnUse">
<stop stop-color="#F7DD43"/>
<stop offset="1" stop-color="#F7DD43" stop-opacity="0"/>
</linearGradient>
<linearGradient id="paint50_linear_175_1901" x1="938.5" y1="-29" x2="938.5" y2="269.818" gradientUnits="userSpaceOnUse">
<stop stop-color="#F7DD43"/>
<stop offset="1" stop-color="#F7DD43" stop-opacity="0"/>
</linearGradient>
<linearGradient id="paint51_linear_175_1901" x1="938.5" y1="-29" x2="938.5" y2="269.818" gradientUnits="userSpaceOnUse">
<stop stop-color="#F7DD43"/>
<stop offset="1" stop-color="#F7DD43" stop-opacity="0"/>
</linearGradient>
<linearGradient id="paint52_linear_175_1901" x1="938.5" y1="-29" x2="938.5" y2="269.818" gradientUnits="userSpaceOnUse">
<stop stop-color="#F7DD43"/>
<stop offset="1" stop-color="#F7DD43" stop-opacity="0"/>
</linearGradient>
<linearGradient id="paint53_linear_175_1901" x1="938.5" y1="-29" x2="938.5" y2="269.818" gradientUnits="userSpaceOnUse">
<stop stop-color="#F7DD43"/>
<stop offset="1" stop-color="#F7DD43" stop-opacity="0"/>
</linearGradient>
<linearGradient id="paint54_linear_175_1901" x1="938.5" y1="-29" x2="938.5" y2="269.818" gradientUnits="userSpaceOnUse">
<stop stop-color="#F7DD43"/>
<stop offset="1" stop-color="#F7DD43" stop-opacity="0"/>
</linearGradient>
<linearGradient id="paint55_linear_175_1901" x1="938.5" y1="-29" x2="938.5" y2="269.818" gradientUnits="userSpaceOnUse">
<stop stop-color="#F7DD43"/>
<stop offset="1" stop-color="#F7DD43" stop-opacity="0"/>
</linearGradient>
<linearGradient id="paint56_linear_175_1901" x1="938.5" y1="-29" x2="938.5" y2="269.818" gradientUnits="userSpaceOnUse">
<stop stop-color="#F7DD43"/>
<stop offset="1" stop-color="#F7DD43" stop-opacity="0"/>
</linearGradient>
<linearGradient id="paint57_linear_175_1901" x1="938.5" y1="-29" x2="938.5" y2="269.818" gradientUnits="userSpaceOnUse">
<stop stop-color="#F7DD43"/>
<stop offset="1" stop-color="#F7DD43" stop-opacity="0"/>
</linearGradient>
<linearGradient id="paint58_linear_175_1901" x1="938.5" y1="-29" x2="938.5" y2="269.818" gradientUnits="userSpaceOnUse">
<stop stop-color="#F7DD43"/>
<stop offset="1" stop-color="#F7DD43" stop-opacity="0"/>
</linearGradient>
<linearGradient id="paint59_linear_175_1901" x1="938.5" y1="-29" x2="938.5" y2="269.818" gradientUnits="userSpaceOnUse">
<stop stop-color="#F7DD43"/>
<stop offset="1" stop-color="#F7DD43" stop-opacity="0"/>
</linearGradient>
<linearGradient id="paint60_linear_175_1901" x1="938.5" y1="-29" x2="938.5" y2="269.818" gradientUnits="userSpaceOnUse">
<stop stop-color="#F7DD43"/>
<stop offset="1" stop-color="#F7DD43" stop-opacity="0"/>
</linearGradient>
<linearGradient id="paint61_linear_175_1901" x1="938.5" y1="-29" x2="938.5" y2="269.818" gradientUnits="userSpaceOnUse">
<stop stop-color="#F7DD43"/>
<stop offset="1" stop-color="#F7DD43" stop-opacity="0"/>
</linearGradient>
<linearGradient id="paint62_linear_175_1901" x1="938.5" y1="-29" x2="938.5" y2="269.818" gradientUnits="userSpaceOnUse">
<stop stop-color="#F7DD43"/>
<stop offset="1" stop-color="#F7DD43" stop-opacity="0"/>
</linearGradient>
<linearGradient id="paint63_linear_175_1901" x1="938.5" y1="-29" x2="938.5" y2="269.818" gradientUnits="userSpaceOnUse">
<stop stop-color="#F7DD43"/>
<stop offset="1" stop-color="#F7DD43" stop-opacity="0"/>
</linearGradient>
<linearGradient id="paint64_linear_175_1901" x1="938.5" y1="-29" x2="938.5" y2="269.818" gradientUnits="userSpaceOnUse">
<stop stop-color="#F7DD43"/>
<stop offset="1" stop-color="#F7DD43" stop-opacity="0"/>
</linearGradient>
<linearGradient id="paint65_linear_175_1901" x1="938.5" y1="-29" x2="938.5" y2="269.818" gradientUnits="userSpaceOnUse">
<stop stop-color="#F7DD43"/>
<stop offset="1" stop-color="#F7DD43" stop-opacity="0"/>
</linearGradient>
<linearGradient id="paint66_linear_175_1901" x1="938.5" y1="-29" x2="938.5" y2="269.818" gradientUnits="userSpaceOnUse">
<stop stop-color="#F7DD43"/>
<stop offset="1" stop-color="#F7DD43" stop-opacity="0"/>
</linearGradient>
<linearGradient id="paint67_linear_175_1901" x1="938.5" y1="-29" x2="938.5" y2="269.818" gradientUnits="userSpaceOnUse">
<stop stop-color="#F7DD43"/>
<stop offset="1" stop-color="#F7DD43" stop-opacity="0"/>
</linearGradient>
<linearGradient id="paint68_linear_175_1901" x1="938.5" y1="-29" x2="938.5" y2="269.818" gradientUnits="userSpaceOnUse">
<stop stop-color="#F7DD43"/>
<stop offset="1" stop-color="#F7DD43" stop-opacity="0"/>
</linearGradient>
<linearGradient id="paint69_linear_175_1901" x1="938.5" y1="-29" x2="938.5" y2="269.818" gradientUnits="userSpaceOnUse">
<stop stop-color="#F7DD43"/>
<stop offset="1" stop-color="#F7DD43" stop-opacity="0"/>
</linearGradient>
<linearGradient id="paint70_linear_175_1901" x1="938.5" y1="-29" x2="938.5" y2="269.818" gradientUnits="userSpaceOnUse">
<stop stop-color="#F7DD43"/>
<stop offset="1" stop-color="#F7DD43" stop-opacity="0"/>
</linearGradient>
<linearGradient id="paint71_linear_175_1901" x1="938.5" y1="-29" x2="938.5" y2="269.818" gradientUnits="userSpaceOnUse">
<stop stop-color="#F7DD43"/>
<stop offset="1" stop-color="#F7DD43" stop-opacity="0"/>
</linearGradient>
<linearGradient id="paint72_linear_175_1901" x1="938.5" y1="-29" x2="938.5" y2="269.818" gradientUnits="userSpaceOnUse">
<stop stop-color="#F7DD43"/>
<stop offset="1" stop-color="#F7DD43" stop-opacity="0"/>
</linearGradient>
<linearGradient id="paint73_linear_175_1901" x1="938.5" y1="-29" x2="938.5" y2="269.818" gradientUnits="userSpaceOnUse">
<stop stop-color="#F7DD43"/>
<stop offset="1" stop-color="#F7DD43" stop-opacity="0"/>
</linearGradient>
<linearGradient id="paint74_linear_175_1901" x1="938.5" y1="-29" x2="938.5" y2="269.818" gradientUnits="userSpaceOnUse">
<stop stop-color="#F7DD43"/>
<stop offset="1" stop-color="#F7DD43" stop-opacity="0"/>
</linearGradient>
<linearGradient id="paint75_linear_175_1901" x1="938.5" y1="-29" x2="938.5" y2="269.818" gradientUnits="userSpaceOnUse">
<stop stop-color="#F7DD43"/>
<stop offset="1" stop-color="#F7DD43" stop-opacity="0"/>
</linearGradient>
<linearGradient id="paint76_linear_175_1901" x1="938.5" y1="-29" x2="938.5" y2="269.818" gradientUnits="userSpaceOnUse">
<stop stop-color="#F7DD43"/>
<stop offset="1" stop-color="#F7DD43" stop-opacity="0"/>
</linearGradient>
<linearGradient id="paint77_linear_175_1901" x1="938.5" y1="-29" x2="938.5" y2="269.818" gradientUnits="userSpaceOnUse">
<stop stop-color="#F7DD43"/>
<stop offset="1" stop-color="#F7DD43" stop-opacity="0"/>
</linearGradient>
<linearGradient id="paint78_linear_175_1901" x1="938.5" y1="-29" x2="938.5" y2="269.818" gradientUnits="userSpaceOnUse">
<stop stop-color="#F7DD43"/>
<stop offset="1" stop-color="#F7DD43" stop-opacity="0"/>
</linearGradient>
<linearGradient id="paint79_linear_175_1901" x1="938.5" y1="-29" x2="938.5" y2="269.818" gradientUnits="userSpaceOnUse">
<stop stop-color="#F7DD43"/>
<stop offset="1" stop-color="#F7DD43" stop-opacity="0"/>
</linearGradient>
<linearGradient id="paint80_linear_175_1901" x1="938.5" y1="-29" x2="938.5" y2="269.818" gradientUnits="userSpaceOnUse">
<stop stop-color="#F7DD43"/>
<stop offset="1" stop-color="#F7DD43" stop-opacity="0"/>
</linearGradient>
<linearGradient id="paint81_linear_175_1901" x1="938.5" y1="-29" x2="938.5" y2="269.818" gradientUnits="userSpaceOnUse">
<stop stop-color="#F7DD43"/>
<stop offset="1" stop-color="#F7DD43" stop-opacity="0"/>
</linearGradient>
<linearGradient id="paint82_linear_175_1901" x1="938.5" y1="-29" x2="938.5" y2="269.818" gradientUnits="userSpaceOnUse">
<stop stop-color="#F7DD43"/>
<stop offset="1" stop-color="#F7DD43" stop-opacity="0"/>
</linearGradient>
<linearGradient id="paint83_linear_175_1901" x1="938.5" y1="-29" x2="938.5" y2="269.818" gradientUnits="userSpaceOnUse">
<stop stop-color="#F7DD43"/>
<stop offset="1" stop-color="#F7DD43" stop-opacity="0"/>
</linearGradient>
<linearGradient id="paint84_linear_175_1901" x1="938.5" y1="-29" x2="938.5" y2="269.818" gradientUnits="userSpaceOnUse">
<stop stop-color="#F7DD43"/>
<stop offset="1" stop-color="#F7DD43" stop-opacity="0"/>
</linearGradient>
<linearGradient id="paint85_linear_175_1901" x1="938.5" y1="-29" x2="938.5" y2="269.818" gradientUnits="userSpaceOnUse">
<stop stop-color="#F7DD43"/>
<stop offset="1" stop-color="#F7DD43" stop-opacity="0"/>
</linearGradient>
<linearGradient id="paint86_linear_175_1901" x1="938.5" y1="-29" x2="938.5" y2="269.818" gradientUnits="userSpaceOnUse">
<stop stop-color="#F7DD43"/>
<stop offset="1" stop-color="#F7DD43" stop-opacity="0"/>
</linearGradient>
<linearGradient id="paint87_linear_175_1901" x1="938.5" y1="-29" x2="938.5" y2="269.818" gradientUnits="userSpaceOnUse">
<stop stop-color="#F7DD43"/>
<stop offset="1" stop-color="#F7DD43" stop-opacity="0"/>
</linearGradient>
<linearGradient id="paint88_linear_175_1901" x1="938.5" y1="-29" x2="938.5" y2="269.818" gradientUnits="userSpaceOnUse">
<stop stop-color="#F7DD43"/>
<stop offset="1" stop-color="#F7DD43" stop-opacity="0"/>
</linearGradient>
<linearGradient id="paint89_linear_175_1901" x1="938.5" y1="-29" x2="938.5" y2="269.818" gradientUnits="userSpaceOnUse">
<stop stop-color="#F7DD43"/>
<stop offset="1" stop-color="#F7DD43" stop-opacity="0"/>
</linearGradient>
<linearGradient id="paint90_linear_175_1901" x1="938.5" y1="-29" x2="938.5" y2="269.818" gradientUnits="userSpaceOnUse">
<stop stop-color="#F7DD43"/>
<stop offset="1" stop-color="#F7DD43" stop-opacity="0"/>
</linearGradient>
<linearGradient id="paint91_linear_175_1901" x1="938.5" y1="-29" x2="938.5" y2="269.818" gradientUnits="userSpaceOnUse">
<stop stop-color="#F7DD43"/>
<stop offset="1" stop-color="#F7DD43" stop-opacity="0"/>
</linearGradient>
<linearGradient id="paint92_linear_175_1901" x1="938.5" y1="-29" x2="938.5" y2="269.818" gradientUnits="userSpaceOnUse">
<stop stop-color="#F7DD43"/>
<stop offset="1" stop-color="#F7DD43" stop-opacity="0"/>
</linearGradient>
<linearGradient id="paint93_linear_175_1901" x1="938.5" y1="-29" x2="938.5" y2="269.818" gradientUnits="userSpaceOnUse">
<stop stop-color="#F7DD43"/>
<stop offset="1" stop-color="#F7DD43" stop-opacity="0"/>
</linearGradient>
<clipPath id="clip0_175_1901">
<rect width="1024" height="753" fill="white"/>
</clipPath>
</defs>
</svg>
